<svg id="Layer_1" data-name="Layer 1" xmlns="http://www.w3.org/2000/svg" viewBox="0 0 82.94 27"><defs><style>.cls-1{fill:#0d7bb5;}</style></defs><path class="cls-1" d="M684.57,447.24a24.94,24.94,0,0,1-.06-2.8l1.34-15.14h4.95l-1.36,15.27c-.29,3.3,1,5.66,4.31,5.66s5.15-2.4,5.45-5.33l1.4-15.6h5l-1.37,15.41c-.55,5.93-4.49,10.37-10.85,10.37-5,0-8.16-3.2-8.77-7.84" transform="translate(-684.5 -428.14)"/><path class="cls-1" d="M706.7,442.11c.64-7.27,5.55-13.29,14-13.29a11.63,11.63,0,0,1,6.51,1.88l-.56,6a7.34,7.34,0,0,0-6.42-3c-5.27,0-8.16,3.66-8.57,8.29s1.93,8.18,7,8.18a9.49,9.49,0,0,0,7.07-3.11l-.55,6.16a14.19,14.19,0,0,1-6.91,1.9c-8.38,0-12.22-6.22-11.61-13" transform="translate(-684.5 -428.14)"/><path class="cls-1" d="M731.18,429.3h4.94l-1.8,20.56h7.08c.5,0,2.19,0,2.65-.06,0,.25-.46,4.75-.46,4.75H728.94Z" transform="translate(-684.5 -428.14)"/><path class="cls-1" d="M756.93,438.73a7.17,7.17,0,0,0,.37-1.06h.08a5.56,5.56,0,0,0,.18,1.07c.27,1.15,2.2,7.55,2.2,7.55h-6.24l3.41-7.55m1.27-10.59h-.34l-13.54,26.4h5.26l1.9-4H761l1.19,4h5.24Z" transform="translate(-684.5 -428.14)"/></svg>